<?xml version="1.0" encoding="UTF-8" standalone="no"?>
<svg
   xmlns:dc="http://purl.org/dc/elements/1.1/"
   xmlns:cc="http://creativecommons.org/ns#"
   xmlns:rdf="http://www.w3.org/1999/02/22-rdf-syntax-ns#"
   xmlns:svg="http://www.w3.org/2000/svg"
   xmlns="http://www.w3.org/2000/svg"
   viewBox="0 0 543.06665 144.39999"
   height="144.39999"
   width="543.06665"
   xml:space="preserve"
   id="svg2"
   version="1.1"><metadata
     id="metadata8"><rdf:RDF><cc:Work
         rdf:about=""><dc:format>image/svg+xml</dc:format><dc:type
           rdf:resource="http://purl.org/dc/dcmitype/StillImage" /></cc:Work></rdf:RDF></metadata><defs
     id="defs6" /><g
     transform="matrix(1.3333333,0,0,-1.3333333,0,144.4)"
     id="g10"><g
       transform="scale(0.1)"
       id="g12"><path
         id="path14"
         style="fill:#121c2b;fill-opacity:1;fill-rule:nonzero;stroke:none"
         d="m 1294,352 h 37 L 1549,74 v 278 h 38 V 5 h -31 L 1332,289 V 5 h -38 v 347" /><path
         id="path16"
         style="fill:#121c2b;fill-opacity:1;fill-rule:nonzero;stroke:none"
         d="m 1701,352 h 251 V 316 H 1740 V 198 h 189 V 162 H 1740 V 41 h 214 V 5 h -253 v 347" /><path
         id="path18"
         style="fill:#121c2b;fill-opacity:1;fill-rule:nonzero;stroke:none"
         d="m 2141,316 h -117 v 36 h 272 V 316 H 2180 V 5 h -40 l 1,311 v 0" /><path
         id="path20"
         style="fill:#121c2b;fill-opacity:1;fill-rule:nonzero;stroke:none"
         d="m 2359,352 h 43 l 99,-289 95,290 h 32 l 95,-290 99,289 h 41 L 2739,3 h -33 L 2611,284 2515,3 h -33 l -123,349" /><path
         id="path22"
         style="fill:#121c2b;fill-opacity:1;fill-rule:nonzero;stroke:none"
         d="m 3230,178 v 0 c 0,80 -57,144 -137,144 -79,0 -136,-63 -136,-142 v -1 c 0,-79 57,-143 137,-143 80,0 136,63 136,142 z m -313,0 v 0 c 0,97 72,180 177,180 106,0 176,-83 176,-178 v -1 C 3270,83 3198,0 3093,0 2988,0 2917,82 2917,178" /><path
         id="path24"
         style="fill:#121c2b;fill-opacity:1;fill-rule:nonzero;stroke:none"
         d="m 3515,175 c 52,0 89,27 89,71 v 0 c 0,43 -33,68 -89,68 H 3408 V 173 l 107,2 z m -146,177 h 149 c 43,0 77,-13 99,-35 17,-17 27,-41 27,-68 v -1 c 0,-57 -40,-91 -94,-101 L 3657,5 h -48 l -101,135 h -99 V 5 h -39 v 347 h -1 v 0" /><path
         id="path26"
         style="fill:#121c2b;fill-opacity:1;fill-rule:nonzero;stroke:none"
         d="m 3743,352 h 39 V 145 l 199,207 h 51 L 3883,200 4038,5 h -49 L 3856,173 3782,98 V 5 h -39 v 347" /><path
         id="path28"
         style="fill:#121c2b;fill-opacity:1;fill-rule:nonzero;stroke:none"
         d="m 1260,537 78,94 c 54,-45 111,-73 180,-73 54,0 87,21 87,57 v 2 c 0,34 -21,51 -121,76 -121,31 -199,64 -199,184 v 2 c 0,109 88,181 210,181 88,0 162,-28 223,-76 l -69,-100 c -53,37 -106,59 -156,59 -51,0 -77,-23 -77,-52 v -2 c 0,-40 26,-52 130,-79 122,-32 191,-76 191,-180 v -2 c 0,-119 -91,-186 -221,-186 -92,-1 -184,30 -256,95" /><path
         id="path30"
         style="fill:#121c2b;fill-opacity:1;fill-rule:nonzero;stroke:none"
         d="m 1978,929 h -183 v 122 h 499 V 929 H 2111 V 449 h -132 l -1,480 v 0" /><path
         id="path32"
         style="fill:#121c2b;fill-opacity:1;fill-rule:nonzero;stroke:none"
         d="m 3263,759 c 64,0 101,34 101,85 v 2 c 0,57 -40,86 -104,86 H 3129 V 759 h 134 z m -267,292 h 275 c 76,0 136,-21 175,-61 34,-34 52,-81 52,-137 v -2 c 0,-97 -52,-158 -129,-186 L 3516,450 H 3361 L 3232,642 H 3128 V 449 h -132 v 602" /><path
         id="path34"
         style="fill:#121c2b;fill-opacity:1;fill-rule:nonzero;stroke:none"
         d="m 3758,929 h -183 v 122 h 498 V 929 H 3890 V 449 h -132 v 480" /><path
         id="path36"
         style="fill:#d31b36;fill-opacity:1;fill-rule:nonzero;stroke:none"
         d="M 2646,1055 H 2524 L 2266,449 h 135 l 55,135 v 0 l 48,117 h -1 l 80,195 80,-195 v 0 l 47,-117 v 0 l 55,-135 h 139 l -258,606" /><path
         id="path38"
         style="fill:#d31b36;fill-opacity:1;fill-rule:nonzero;stroke:none"
         d="m 542,0 -1,66 h 1 c 14,0 27,1 41,2 L 589,2 C 573,0 557,0 542,0" /><path
         id="path40"
         style="fill:#d31b36;fill-opacity:1;fill-rule:nonzero;stroke:none"
         d="m 494,2 c -16,1 -31,3 -47,6 l 12,65 c 14,-2 27,-4 41,-5 L 494,2" /><path
         id="path42"
         style="fill:#d31b36;fill-opacity:1;fill-rule:nonzero;stroke:none"
         d="m 635,8 -11,65 c 14,2 27,5 40,9 L 681,18 C 666,14 650,10 635,8" /><path
         id="path44"
         style="fill:#d31b36;fill-opacity:1;fill-rule:nonzero;stroke:none"
         d="m 401,18 c -15,4 -30,9 -45,14 l 23,62 c 13,-5 26,-9 39,-12 L 401,18" /><path
         id="path46"
         style="fill:#d31b36;fill-opacity:1;fill-rule:nonzero;stroke:none"
         d="m 726,32 -23,62 c 13,5 26,10 38,16 L 769,50 C 756,43 741,37 726,32" /><path
         id="path48"
         style="fill:#d31b36;fill-opacity:1;fill-rule:nonzero;stroke:none"
         d="m 312,50 c -14,7 -28,14 -42,22 l 33,57 c 12,-7 24,-13 37,-19 L 312,50" /><path
         id="path50"
         style="fill:#d31b36;fill-opacity:1;fill-rule:nonzero;stroke:none"
         d="m 812,72 -33,58 c 12,7 24,14 35,22 L 852,98 C 839,88 825,80 812,72" /><path
         id="path52"
         style="fill:#121c2b;fill-opacity:1;fill-rule:nonzero;stroke:none"
         d="m 230,98 c -13,9 -25,19 -37,29 l 43,51 c 11,-9 22,-17 33,-25 L 230,98" /><path
         id="path54"
         style="fill:#d31b36;fill-opacity:1;fill-rule:nonzero;stroke:none"
         d="m 889,126 -43,51 c 11,9 21,18 31,28 l 47,-47 c -11,-11 -23,-22 -35,-32" /><path
         id="path56"
         style="fill:#121c2b;fill-opacity:1;fill-rule:nonzero;stroke:none"
         d="m 158,158 c -11,11 -22,23 -32,35 l 51,43 c 9,-11 18,-21 28,-31 l -47,-47" /><path
         id="path58"
         style="fill:#d31b36;fill-opacity:1;fill-rule:nonzero;stroke:none"
         d="m 956,192 -51,43 c 9,11 17,22 25,33 l 54,-38 c -8,-13 -18,-26 -28,-38" /><path
         id="path60"
         style="fill:#121c2b;fill-opacity:1;fill-rule:nonzero;stroke:none"
         d="m 98,231 c -9,13 -18,26 -25,40 l 58,33 c 7,-12 14,-24 22,-35 L 98,231" /><path
         id="path62"
         style="fill:#d31b36;fill-opacity:1;fill-rule:nonzero;stroke:none"
         d="m 1010,270 -57,33 c 7,12 13,24 19,37 l 60,-28 c -6,-15 -14,-29 -22,-42" /><path
         id="path64"
         style="fill:#121c2b;fill-opacity:1;fill-rule:nonzero;stroke:none"
         d="m 50,313 c -7,14 -13,29 -18,44 l 62,23 c 5,-13 10,-26 16,-38 L 50,313" /><path
         id="path66"
         style="fill:#d31b36;fill-opacity:1;fill-rule:nonzero;stroke:none"
         d="m 1050,355 -62,23 c 5,13 9,26 13,39 l 64,-17 c -4,-15 -9,-30 -15,-45" /><path
         id="path68"
         style="fill:#121c2b;fill-opacity:1;fill-rule:nonzero;stroke:none"
         d="m 18,401 c -4,15 -7,31 -10,46 l 65,11 c 2,-14 5,-27 9,-40 L 18,401" /><path
         id="path70"
         style="fill:#d31b36;fill-opacity:1;fill-rule:nonzero;stroke:none"
         d="m 1075,446 -65,12 c 2,14 4,27 5,41 l 66,-6 c -1,-16 -3,-31 -6,-47" /><path
         id="path72"
         style="fill:#121c2b;fill-opacity:1;fill-rule:nonzero;stroke:none"
         d="m 2,494 c -1,16 -2,31 -2,47 v 2 H 66 33 l 33,-1 v -1 c 0,-14 1,-28 2,-41 L 2,494" /><path
         id="path74"
         style="fill:#d31b36;fill-opacity:1;fill-rule:nonzero;stroke:none"
         d="m 1017,540 v 0 c 0,14 -1,28 -2,41 l 66,6 c 1,-15 2,-31 2,-46 l -66,-1" /><path
         id="path76"
         style="fill:#121c2b;fill-opacity:1;fill-rule:nonzero;stroke:none"
         d="m 68,585 -66,6 c 1,16 4,31 6,47 l 65,-12 c -2,-14 -4,-27 -5,-41" /><path
         id="path78"
         style="fill:#d31b36;fill-opacity:1;fill-rule:nonzero;stroke:none"
         d="m 1010,623 c -2,14 -5,27 -9,40 l 64,17 c 4,-15 7,-31 10,-46 l -65,-11" /><path
         id="path80"
         style="fill:#121c2b;fill-opacity:1;fill-rule:nonzero;stroke:none"
         d="m 83,666 -64,17 c 4,15 9,30 14,45 L 95,705 C 91,693 86,680 83,666" /><path
         id="path82"
         style="fill:#d31b36;fill-opacity:1;fill-rule:nonzero;stroke:none"
         d="m 989,703 c -5,13 -10,26 -16,38 l 60,28 c 7,-14 13,-29 18,-44 l -62,-22" /><path
         id="path84"
         style="fill:#121c2b;fill-opacity:1;fill-rule:nonzero;stroke:none"
         d="m 111,744 -60,28 c 7,14 14,28 22,42 l 57,-33 c -6,-12 -13,-24 -19,-37" /><path
         id="path86"
         style="fill:#d31b36;fill-opacity:1;fill-rule:nonzero;stroke:none"
         d="m 954,778 c -7,12 -14,24 -22,35 l 54,38 c 9,-13 17,-26 25,-40 l -57,-33" /><path
         id="path88"
         style="fill:#121c2b;fill-opacity:1;fill-rule:nonzero;stroke:none"
         d="m 153,816 -54,38 c 9,13 19,25 29,37 l 51,-43 c -9,-10 -18,-21 -26,-32" /><path
         id="path90"
         style="fill:#d31b36;fill-opacity:1;fill-rule:nonzero;stroke:none"
         d="m 907,846 c -9,11 -18,21 -28,31 l 47,47 c 11,-11 22,-23 32,-35 l -51,-43" /><path
         id="path92"
         style="fill:#121c2b;fill-opacity:1;fill-rule:nonzero;stroke:none"
         d="m 207,879 -47,47 c 11,11 23,22 35,32 l 43,-51 c -11,-9 -22,-18 -31,-28" /><path
         id="path94"
         style="fill:#d31b36;fill-opacity:1;fill-rule:nonzero;stroke:none"
         d="m 848,905 c -11,9 -22,17 -33,25 l 38,54 c 13,-9 25,-19 37,-29 l -42,-50" /><path
         id="path96"
         style="fill:#121c2b;fill-opacity:1;fill-rule:nonzero;stroke:none"
         d="m 270,932 -38,55 c 13,9 26,17 40,25 l 33,-58 c -12,-7 -23,-14 -35,-22" /><path
         id="path98"
         style="fill:#d31b36;fill-opacity:1;fill-rule:nonzero;stroke:none"
         d="m 780,953 c -12,7 -24,13 -37,19 l 28,60 c 14,-7 28,-14 42,-22 l -33,-57" /><path
         id="path100"
         style="fill:#121c2b;fill-opacity:1;fill-rule:nonzero;stroke:none"
         d="m 342,973 -28,60 c 14,7 29,13 44,18 l 23,-62 c -13,-5 -26,-10 -39,-16" /><path
         id="path102"
         style="fill:#121c2b;fill-opacity:1;fill-rule:nonzero;stroke:none"
         d="m 705,988 c -13,5 -26,9 -39,13 l 17,64 c 15,-4 30,-9 45,-14 l -23,-63" /><path
         id="path104"
         style="fill:#121c2b;fill-opacity:1;fill-rule:nonzero;stroke:none"
         d="m 420,1001 -17,64 c 15,4 31,7 46,10 l 11,-65 c -13,-2 -27,-5 -40,-9" /><path
         id="path106"
         style="fill:#121c2b;fill-opacity:1;fill-rule:nonzero;stroke:none"
         d="m 626,1009 c -14,2 -27,4 -41,5 l 6,66 c 16,-1 31,-4 47,-6 l -12,-65" /><path
         id="path108"
         style="fill:#121c2b;fill-opacity:1;fill-rule:nonzero;stroke:none"
         d="m 502,1015 -5,66 c 15,1 30,2 45,2 h 2 v -66 h -2 c -14,0 -27,-1 -40,-2" /></g></g></svg>